<mxfile host="app.diagrams.net" modified="2023-04-11T11:46:49.721Z" agent="Mozilla/5.0 (Windows NT 10.0; Win64; x64) AppleWebKit/537.36 (KHTML, like Gecko) Chrome/111.0.0.0 Safari/537.36" etag="_IKr3cdO401GMu7vY3oh" version="21.1.5" type="github">
  <diagram id="2lVPvYAt5jR7z7e0g14L" name="Page-1">
    <mxGraphModel dx="692" dy="461" grid="1" gridSize="10" guides="1" tooltips="1" connect="1" arrows="1" fold="1" page="1" pageScale="1" pageWidth="850" pageHeight="1100" math="0" shadow="0">
      <root>
        <mxCell id="0" />
        <mxCell id="1" parent="0" />
        <mxCell id="LGQaKnVFktVXffgbWyPW-3" style="edgeStyle=orthogonalEdgeStyle;rounded=0;orthogonalLoop=1;jettySize=auto;html=1;entryX=0.5;entryY=0;entryDx=0;entryDy=0;" parent="1" source="atLUrV1GHqGAp-eZwnpk-1" target="atLUrV1GHqGAp-eZwnpk-2" edge="1">
          <mxGeometry relative="1" as="geometry" />
        </mxCell>
        <mxCell id="atLUrV1GHqGAp-eZwnpk-1" value="HW Init&lt;br&gt;&lt;br&gt;&lt;br&gt;&lt;br&gt;" style="rounded=1;whiteSpace=wrap;html=1;" parent="1" vertex="1">
          <mxGeometry x="290" y="200" width="120" height="80" as="geometry" />
        </mxCell>
        <mxCell id="ocq4hiyoIey7MnQaaA4S-4" value="ok" style="edgeStyle=orthogonalEdgeStyle;rounded=0;orthogonalLoop=1;jettySize=auto;html=1;exitX=0.5;exitY=1;exitDx=0;exitDy=0;entryX=0.5;entryY=0;entryDx=0;entryDy=0;" parent="1" source="atLUrV1GHqGAp-eZwnpk-2" target="ocq4hiyoIey7MnQaaA4S-2" edge="1">
          <mxGeometry relative="1" as="geometry" />
        </mxCell>
        <mxCell id="ocq4hiyoIey7MnQaaA4S-6" style="edgeStyle=orthogonalEdgeStyle;rounded=0;orthogonalLoop=1;jettySize=auto;html=1;exitX=1;exitY=0.5;exitDx=0;exitDy=0;entryX=0.5;entryY=1;entryDx=0;entryDy=0;" parent="1" source="atLUrV1GHqGAp-eZwnpk-2" target="ocq4hiyoIey7MnQaaA4S-1" edge="1">
          <mxGeometry relative="1" as="geometry" />
        </mxCell>
        <mxCell id="ocq4hiyoIey7MnQaaA4S-8" value="Fail[CRC ERR Sign at LCD + Button Press]" style="edgeLabel;html=1;align=center;verticalAlign=middle;resizable=0;points=[];" parent="ocq4hiyoIey7MnQaaA4S-6" vertex="1" connectable="0">
          <mxGeometry x="0.075" y="3" relative="1" as="geometry">
            <mxPoint y="-42" as="offset" />
          </mxGeometry>
        </mxCell>
        <mxCell id="atLUrV1GHqGAp-eZwnpk-2" value="Check CRC of the Flash Content" style="rhombus;whiteSpace=wrap;html=1;" parent="1" vertex="1">
          <mxGeometry x="250" y="330" width="200" height="80" as="geometry" />
        </mxCell>
        <mxCell id="LGQaKnVFktVXffgbWyPW-9" value="" style="html=1;verticalAlign=bottom;startArrow=circle;startFill=1;endArrow=open;startSize=6;endSize=8;rounded=0;" parent="1" edge="1">
          <mxGeometry width="80" relative="1" as="geometry">
            <mxPoint x="349.71000000000004" y="130" as="sourcePoint" />
            <mxPoint x="349.71000000000004" y="200" as="targetPoint" />
          </mxGeometry>
        </mxCell>
        <mxCell id="_qDpWo0x83BWtvbT7pPs-1" value="No Power" style="edgeLabel;html=1;align=center;verticalAlign=middle;resizable=0;points=[];" vertex="1" connectable="0" parent="LGQaKnVFktVXffgbWyPW-9">
          <mxGeometry x="-0.8405" y="-2" relative="1" as="geometry">
            <mxPoint x="2" y="-15" as="offset" />
          </mxGeometry>
        </mxCell>
        <mxCell id="ocq4hiyoIey7MnQaaA4S-10" style="edgeStyle=orthogonalEdgeStyle;rounded=0;orthogonalLoop=1;jettySize=auto;html=1;entryX=1;entryY=0.5;entryDx=0;entryDy=0;" parent="1" source="ocq4hiyoIey7MnQaaA4S-1" target="atLUrV1GHqGAp-eZwnpk-1" edge="1">
          <mxGeometry relative="1" as="geometry" />
        </mxCell>
        <mxCell id="ocq4hiyoIey7MnQaaA4S-1" value="CRC Err&lt;br&gt;Screen" style="rounded=1;whiteSpace=wrap;html=1;" parent="1" vertex="1">
          <mxGeometry x="490" y="210" width="120" height="60" as="geometry" />
        </mxCell>
        <mxCell id="ocq4hiyoIey7MnQaaA4S-2" value="Stop Mode" style="rounded=1;whiteSpace=wrap;html=1;" parent="1" vertex="1">
          <mxGeometry x="290" y="470" width="120" height="60" as="geometry" />
        </mxCell>
        <mxCell id="ocq4hiyoIey7MnQaaA4S-18" style="edgeStyle=orthogonalEdgeStyle;rounded=0;orthogonalLoop=1;jettySize=auto;html=1;exitX=0.75;exitY=0;exitDx=0;exitDy=0;entryX=1;entryY=0.5;entryDx=0;entryDy=0;" parent="1" source="ocq4hiyoIey7MnQaaA4S-1" target="ocq4hiyoIey7MnQaaA4S-1" edge="1">
          <mxGeometry relative="1" as="geometry" />
        </mxCell>
      </root>
    </mxGraphModel>
  </diagram>
</mxfile>
